<svg height="512" viewBox="0 0 64 64" width="512" xmlns="http://www.w3.org/2000/svg" xmlns:xlink="http://www.w3.org/1999/xlink"><linearGradient id="linear-gradient" gradientUnits="userSpaceOnUse" x1="60" x2="60" y1="61" y2="3"><stop offset="0" stop-color="#e9a254"/><stop offset="1" stop-color="#f4bb79"/></linearGradient><linearGradient id="linear-gradient-2" gradientUnits="userSpaceOnUse" x1="56.98" x2="63.02" y1="57.5" y2="57.5"><stop offset="0" stop-color="#d1a788"/><stop offset="1" stop-color="#f2d3b8"/></linearGradient><linearGradient id="linear-gradient-3" gradientUnits="userSpaceOnUse" x1="60" x2="60" y1="10" y2="3"><stop offset="0" stop-color="#d96bb0"/><stop offset="1" stop-color="#e49fc6"/></linearGradient><linearGradient id="linear-gradient-4" gradientUnits="userSpaceOnUse" x1="57" x2="63" y1="12" y2="12"><stop offset="0" stop-color="#949aaf"/><stop offset="1" stop-color="#c6ccda"/></linearGradient><linearGradient id="linear-gradient-5" gradientUnits="userSpaceOnUse" x1="24" x2="24" y1="13" y2="1"><stop offset="0" stop-color="#d4d8e1"/><stop offset="1" stop-color="#f3f4f5"/></linearGradient><linearGradient id="linear-gradient-10" x1="26" x2="26" xlink:href="#linear-gradient-5" y1="63" y2="13"/><linearGradient id="linear-gradient-11" x1="43" x2="51" xlink:href="#linear-gradient-4" y1="26" y2="26"/><linearGradient id="linear-gradient-12" x1="45" x2="45" xlink:href="#linear-gradient" y1="13" y2="7"/><g id="Notebook"><path d="m63 5v50l-3 6-3-6v-50a2 2 0 0 1 2-2h2a2 2 0 0 1 2 2z" fill="url(#linear-gradient)"/><path d="m63 54.68c0 .45.41-.51-3 6.32-3.43-6.87-3-5.87-3-6.32a6.93 6.93 0 0 1 6 0z" fill="url(#linear-gradient-2)"/><path d="m61.43 58.14-1.43 2.86-1.43-2.86a7.44 7.44 0 0 1 2.86 0z" fill="#42455e"/><path d="m59 3h2a2 2 0 0 1 2 2v5a0 0 0 0 1 0 0h-6a0 0 0 0 1 0 0v-5a2 2 0 0 1 2-2z" fill="url(#linear-gradient-3)"/><path d="m57 10h6v4h-6z" fill="url(#linear-gradient-4)"/><path d="m57 14h6v2h-6z" fill="#f2a961"/></g><g id="Notes"><path d="m5 13c-2.21 0-4-2.69-4-6s1.79-6 4-6h42v12z" fill="url(#linear-gradient-5)"/><path d="m47 10v3h-42c-2.91 0-4.48-4.24-3.87-7.5.44 2.58 2.01 4.5 3.87 4.5z" fill="#c7cdd8"/><path d="m63 5v50l-3 6-3-6v-50a2 2 0 0 1 2-2h2a2 2 0 0 1 2 2z" fill="url(#linear-gradient)"/><path d="m63 54.68c0 .45.41-.51-3 6.32-3.43-6.87-3-5.87-3-6.32a6.93 6.93 0 0 1 6 0z" fill="url(#linear-gradient-2)"/><path d="m61.43 58.14-1.43 2.86-1.43-2.86a7.44 7.44 0 0 1 2.86 0z" fill="#42455e"/><path d="m59 3h2a2 2 0 0 1 2 2v5a0 0 0 0 1 0 0h-6a0 0 0 0 1 0 0v-5a2 2 0 0 1 2-2z" fill="url(#linear-gradient-3)"/><path d="m57 10h6v4h-6z" fill="url(#linear-gradient-4)"/><path d="m5 13h42v50h-42z" fill="url(#linear-gradient-10)"/><path d="m5 60h42v3h-42z" fill="#c7cdd8"/><path d="m51 7v44h-4v-38c-2.21 0-4-2.69-4-6s1.79-6 4-6 4 2.69 4 6z" fill="url(#linear-gradient-11)"/><g fill="#9ca0ad"><path d="m41 24h-30a1 1 0 0 1 0-2h30a1 1 0 0 1 0 2z"/><path d="m41 30h-17a1 1 0 0 1 0-2h17a1 1 0 0 1 0 2z"/><path d="m20 30h-9a1 1 0 0 1 0-2h9a1 1 0 0 1 0 2z"/><path d="m41 36h-6a1 1 0 0 1 0-2h6a1 1 0 0 1 0 2z"/><path d="m31 36h-20a1 1 0 0 1 0-2h20a1 1 0 0 1 0 2z"/><path d="m41 42h-21a1 1 0 0 1 0-2h21a1 1 0 0 1 0 2z"/><path d="m16 42h-5a1 1 0 0 1 0-2h5a1 1 0 0 1 0 2z"/><path d="m41 48h-1a1 1 0 0 1 0-2h1a1 1 0 0 1 0 2z"/><path d="m36 48h-25a1 1 0 0 1 0-2h25a1 1 0 0 1 0 2z"/><path d="m41 54h-13a1 1 0 0 1 0-2h13a1 1 0 0 1 0 2z"/><path d="m24 54h-13a1 1 0 0 1 0-2h13a1 1 0 0 1 0 2z"/></g><path d="m47 7v6c-2.21 0-4-2.69-4-6z" fill="url(#linear-gradient-12)"/><path d="m57 14h6v2h-6z" fill="#f2a961"/></g></svg>