<svg id="Layer_1" enable-background="new 0 0 24 24" height="512" viewBox="0 0 24 24" width="512" xmlns="http://www.w3.org/2000/svg">
	<path d="m11.5 13.7-1.5-5.5c-.2-.4-.6-.7-1-.7s-.8.3-1 .7l-1.6 5.5-.4 1.5v.3c0 .4.3.8.7 1 .5.1 1.1-.2 1.2-.7l.3-.8h1.6l.2.8c.1.4.5.7 1 .7h.3c.4-.1.7-.5.7-1 0-.1 0-.2 0-.3zm-2.7-.7.2-.9.2.9zm3.2-12c-6.1 0-11 4.9-11 11s4.9 11 11 11 11-4.9 11-11-4.9-11-11-11zm7 16.6-.8-.8c-.4-.4-1-.4-1.4 0s-.4 1 0 1.4l.8.8c-1.5 1.2-3.5 2-5.6 2-5 0-9-4-9-9 0-2.1.7-4.1 2-5.6l.8.8c.2.2.4.3.7.3s.5-.1.7-.3c.4-.4.4-1 0-1.4l-.8-.8c1.5-1.3 3.5-2 5.6-2 5 0 9 4 9 9 0 2.1-.7 4.1-2 5.6zm-5.5-10.1c-.6 0-1 .4-1 1v7c0 .6.4 1 1 1 3.1 0 5-1.7 5-4.5s-1.9-4.5-5-4.5zm1 6.9v-4.8c1.3.3 2 1.1 2 2.4s-.7 2.2-2 2.4z" fill="currentColor" />
</svg>
