<svg clip-rule="evenodd" fill-rule="evenodd" stroke-linejoin="round" stroke-miterlimit="2" viewBox="0 0 24 24" xmlns="http://www.w3.org/2000/svg">
	<g id="Icon">
		<path d="m9.85 13.075c3.56 0 6.45 2.89 6.45 6.45 0-3.56 2.89-6.45 6.45-6.45-3.56 0-6.45-2.89-6.45-6.45 0 3.56-2.89 6.45-6.45 6.45z" fill="currentColor" />
		<path d="m1.25 18.45c2.373 0 4.3 1.927 4.3 4.3 0-2.373 1.927-4.3 4.3-4.3-2.373 0-4.3-1.927-4.3-4.3 0 2.373-1.927 4.3-4.3 4.3z" fill="currentColor" />
		<path d="m3.4 5.55c2.373 0 4.3 1.927 4.3 4.3 0-2.373 1.927-4.3 4.3-4.3-2.373 0-4.3-1.927-4.3-4.3 0 2.373-1.927 4.3-4.3 4.3z" fill="currentColor" />
	</g>
</svg>
